<svg width="40" height="39" viewBox="0 0 40 39" fill="none" xmlns="http://www.w3.org/2000/svg">
<path d="M14.6233 21.7387L17.3562 8.52975C17.3598 8.51243 17.3751 8.5 17.3927 8.5H25.7739C25.7828 8.5 25.7878 8.5019 25.7912 8.50372C25.7954 8.506 25.8003 8.50997 25.8044 8.51584C25.8085 8.52171 25.8106 8.52761 25.8113 8.53238C25.8119 8.5362 25.812 8.54149 25.809 8.5499L23.3467 15.4186C23.1044 16.0944 23.6053 16.806 24.3231 16.806H27.9654C27.9772 16.806 27.982 16.8086 27.9846 16.8102C27.9886 16.8127 27.9939 16.8176 27.9982 16.8255C28.0025 16.8334 28.0037 16.8405 28.0036 16.8452C28.0035 16.8482 28.0031 16.8537 27.9967 16.8636L16.9821 33.8178C16.9735 33.8311 16.9676 33.8354 16.9669 33.8359C16.9666 33.8361 16.9665 33.8362 16.9663 33.8363C16.966 33.8365 16.9659 33.8365 16.9658 33.8365C16.964 33.837 16.953 33.8387 16.9366 33.8319C16.9202 33.8252 16.9136 33.8162 16.9127 33.8146C16.9126 33.8144 16.9125 33.8144 16.9123 33.8134C16.9122 33.8125 16.9111 33.8053 16.9143 33.7898L19.1672 23.0335C19.3022 22.3891 18.8104 21.7836 18.1519 21.7836H14.6599C14.6362 21.7836 14.6185 21.7619 14.6233 21.7387Z" stroke="black"/>
<path d="M11.1337 21.6374L13.8666 8.42845C13.9182 8.17894 14.138 8 14.3927 8H22.7739C23.1457 8 23.4052 8.36861 23.2797 8.71864L20.8173 15.5873C20.6918 15.9374 20.9513 16.306 21.3231 16.306H24.9654C25.3917 16.306 25.6482 16.7786 25.416 17.136L14.4014 34.0902C14.0773 34.589 13.303 34.2695 13.4249 33.6873L15.6778 22.931C15.7477 22.5972 15.493 22.2836 15.1519 22.2836H11.6599C11.3193 22.2836 11.0647 21.9709 11.1337 21.6374Z" fill="black"/>
<path d="M4.37103e-08 1H1V7H4.37103e-08V1Z" fill="black"/>
<path d="M4.37103e-08 1V1C1.95698e-08 0.447715 0.447715 2.86409e-07 1 2.62268e-07L7 0V1L4.37103e-08 1Z" fill="black"/>
<rect width="1" height="6" transform="matrix(1 0 0 -1 0 38)" fill="black"/>
<path d="M0 38V38C-2.41411e-08 38.5523 0.447715 39 1 39L7 39L7 38L0 38Z" fill="black"/>
<rect width="1" height="6" transform="matrix(-1 0 0 1 40 1)" fill="black"/>
<path d="M40 1V1C40 0.447715 39.5523 2.78453e-07 39 2.54312e-07L33 -7.95649e-09L33 1L40 1Z" fill="black"/>
<rect x="40" y="38" width="1" height="6" transform="rotate(-180 40 38)" fill="black"/>
<path d="M40 38V38C40 38.5523 39.5523 39 39 39L33 39L33 38L40 38Z" fill="black"/>
</svg>
